<svg xmlns="http://www.w3.org/2000/svg" viewBox="350 188 556 850" role="img" aria-label="Vyntra cicada logo">
  <path fill="#fff" fill-rule="evenodd" d="M477 213 L475 215 L477 224 L521 338 L555 386 L525 429 L492 417 L382 455 L376 462 L376 466 L402 488 L493 425 L499 426 L521 436 L451 569 L413 802 L470 992 L496 1011 L502 1012 L578 916 L581 812 L626 876 L629 876 L674 812 L676 915 L753 1012 L757 1012 L778 998 L785 991 L842 803 L804 570 L734 436 L762 425 L852 486 L857 485 L879 466 L879 462 L873 455 L762 417 L730 429 L701 387 L703 381 L735 340 L781 214 L773 215 L727 252 L727 338 L693 382 L677 378 L689 350 L689 345 L659 316 L597 316 L567 345 L568 352 L579 378 L562 382 L529 337 L529 251 L488 219 Z M563 543 L565 547 L569 586 L573 760 L572 817 L448 641 L451 636 Z M693 544 L807 640 L683 817 L681 812 L685 610 L690 548 Z M809 650 L817 690 L834 803 L748 882 L712 788 Z M446 650 L543 788 L507 882 L420 802 L444 653 Z M537 446 L539 443 L600 475 L629 488 L716 443 L718 444 L685 533 L628 584 L570 533 Z M548 796 L573 831 L572 912 L499 1004 L482 993 L479 988 L516 879 Z M706 796 L741 885 L776 989 L756 1004 L683 912 L682 830 Z M728 442 L797 570 L806 624 L805 628 L692 534 L721 456 Z M527 441 L562 534 L450 628 L449 623 L458 570 Z M576 593 L678 592 L678 646 L578 647 Z M426 818 L505 890 L474 979 L426 825 Z M828 819 L829 823 L783 974 L780 978 L750 890 Z M575 347 L600 323 L656 323 L681 347 L681 350 L669 378 L630 371 L587 378 L581 366 Z M577 655 L676 654 L676 699 L579 700 Z M580 760 L674 759 L675 797 L669 806 L586 806 L580 798 Z M578 708 L675 707 L675 751 L580 752 Z M629 378 L666 385 L628 471 L626 470 L589 385 Z M591 814 L664 814 L628 866 L625 864 Z M673 387 L679 386 L694 389 L722 432 L695 446 L665 407 Z M583 387 L590 407 L560 446 L533 432 L562 389 L576 386 Z M593 415 L598 422 L620 472 L620 477 L567 449 Z M662 414 L688 449 L635 476 L634 475 Z M489 229 L522 255 L521 316 L488 232 Z M766 230 L767 233 L735 318 L734 256 Z M465 436 L403 479 L384 464 L386 461 L462 435 Z M791 436 L794 435 L871 463 L853 478 Z M572 546 L573 545 L616 584 L576 585 Z M683 546 L680 580 L678 585 L639 584 L682 545 Z"/>
</svg>
